<?xml version="1.0" standalone="no"?>
<!DOCTYPE svg PUBLIC "-//W3C//DTD SVG 20010904//EN"
 "http://www.w3.org/TR/2001/REC-SVG-20010904/DTD/svg10.dtd">
<svg version="1.0" xmlns="http://www.w3.org/2000/svg"
 width="969.000000pt" height="969.000000pt" viewBox="0 0 969.000000 969.000000"
 preserveAspectRatio="xMidYMid meet">
<metadata>
Created by potrace 1.14, written by Peter Selinger 2001-2017
</metadata>
<g transform="translate(0.000000,969.000000) scale(0.100000,-0.100000)"
fill="#000000" stroke="none">
<path d="M4507 9684 c-1 -1 -82 -5 -181 -9 -98 -4 -186 -8 -195 -10 -9 -1 -66
-6 -128 -9 -61 -4 -122 -9 -135 -11 -13 -2 -57 -6 -98 -10 -103 -8 -215 -20
-290 -30 -19 -3 -57 -7 -85 -10 -27 -3 -57 -7 -65 -10 -8 -2 -41 -6 -73 -10
-117 -12 -505 -81 -737 -130 -167 -35 -159 -33 -178 -39 -9 -3 -31 -8 -48 -10
-120 -21 -191 -84 -223 -197 -67 -233 -116 -357 -197 -492 -142 -235 -355
-439 -594 -569 -66 -35 -255 -114 -325 -134 -85 -25 -127 -48 -163 -89 -67
-76 -64 -34 -59 -830 3 -396 8 -740 11 -765 3 -25 8 -92 11 -150 7 -138 19
-283 30 -375 3 -22 7 -62 10 -90 2 -27 7 -66 9 -85 5 -35 24 -175 32 -240 9
-70 49 -311 64 -380 5 -25 12 -63 16 -85 4 -22 8 -42 9 -45 0 -3 4 -23 9 -45
82 -427 314 -1163 476 -1510 15 -33 40 -90 55 -125 43 -104 170 -352 263 -515
219 -385 462 -729 741 -1050 136 -156 435 -454 581 -579 63 -54 128 -110 145
-124 16 -14 94 -75 175 -134 80 -60 150 -112 155 -116 6 -5 64 -43 130 -86 66
-44 131 -86 145 -96 14 -9 45 -28 70 -42 25 -14 85 -49 135 -78 208 -121 587
-292 758 -341 98 -29 126 -24 354 67 633 252 1283 689 1822 1225 87 87 212
220 271 289 36 41 68 77 71 80 20 17 229 286 314 404 508 707 892 1570 1114
2506 22 91 44 190 50 220 6 30 13 66 16 80 5 24 29 153 40 215 5 28 19 118 31
190 2 17 6 41 9 55 6 31 13 90 20 155 3 28 7 61 10 75 2 14 7 50 10 80 3 30 8
71 10 90 2 19 7 69 11 110 3 41 8 89 9 105 3 29 13 166 20 275 12 172 18 477
19 970 2 605 1 621 -54 690 -35 44 -68 61 -205 106 -268 87 -533 253 -695 437
-19 22 -45 52 -58 66 -39 44 -148 212 -185 286 -62 123 -97 215 -137 368 -25
95 -60 150 -115 183 -35 20 -297 86 -435 110 -14 2 -36 7 -50 9 -14 3 -36 7
-50 10 -14 3 -72 14 -130 25 -58 10 -123 22 -145 25 -23 3 -50 7 -60 9 -11 2
-42 7 -68 10 -27 4 -59 9 -70 12 -12 2 -76 11 -142 19 -66 9 -131 18 -145 20
-14 2 -52 6 -85 10 -33 3 -78 8 -100 10 -22 3 -69 7 -105 11 -36 3 -78 7 -95
9 -16 2 -73 6 -125 9 -52 4 -120 8 -150 11 -140 11 -374 18 -698 19 -194 1
-354 1 -355 0z m818 -929 c212 -11 383 -22 455 -30 19 -2 67 -7 105 -10 39 -4
81 -8 95 -10 14 -2 54 -6 90 -10 36 -4 79 -9 95 -11 17 -2 64 -9 105 -14 41
-6 86 -12 100 -15 13 -3 42 -7 65 -10 150 -21 336 -59 370 -77 51 -26 71 -51
134 -173 29 -55 57 -105 62 -111 7 -9 -4 -25 -38 -56 -34 -31 -238 -227 -297
-285 -1 -2 -30 47 -65 107 -34 61 -65 110 -69 110 -4 0 -50 7 -102 15 -132 22
-139 23 -194 30 -27 3 -52 8 -55 9 -3 2 -40 7 -81 11 -41 3 -82 8 -90 10 -8 2
-51 7 -94 10 -43 4 -87 8 -97 10 -43 8 -200 20 -549 41 -125 7 -753 7 -860 0
-41 -3 -115 -8 -165 -11 -169 -10 -314 -21 -385 -30 -19 -2 -60 -7 -90 -10
-105 -11 -328 -40 -380 -50 -14 -2 -72 -11 -129 -20 -57 -8 -105 -16 -107 -17
-7 -9 -94 -161 -94 -166 -1 -4 -11 -20 -24 -36 -21 -25 -26 -27 -39 -15 -7 8
-40 37 -72 64 -32 28 -63 55 -69 60 -6 6 -36 30 -66 55 -30 25 -57 47 -60 50
-3 3 -20 16 -38 29 l-32 23 51 96 c29 54 63 117 76 142 14 25 37 57 51 72 27
29 103 62 162 71 19 3 76 12 125 20 50 9 108 19 130 22 23 3 50 7 61 9 12 2
45 7 75 11 30 3 65 8 79 10 14 2 43 7 65 9 22 3 58 8 80 10 35 5 154 17 295
31 25 2 86 7 135 10 50 4 110 8 135 10 25 2 122 7 215 10 94 4 171 8 172 9 6
5 636 -2 758 -9z m-2996 -1127 c56 -113 85 -165 137 -245 19 -29 34 -57 34
-61 0 -17 -217 -188 -340 -268 l-45 -30 2 -199 c2 -245 16 -582 28 -675 2 -19
7 -71 10 -115 6 -84 8 -101 19 -200 16 -131 19 -156 37 -275 6 -41 12 -84 14
-95 10 -69 37 -216 44 -243 6 -18 10 -35 10 -37 -1 -17 17 -107 43 -215 16
-69 31 -134 34 -144 27 -132 192 -653 244 -771 5 -11 32 -76 61 -145 90 -220
238 -511 372 -730 365 -600 848 -1105 1397 -1461 131 -86 249 -155 333 -195
47 -23 57 -33 58 -54 0 -14 2 -47 4 -73 2 -27 6 -117 10 -200 7 -152 14 -203
16 -111 1 27 2 63 4 79 2 17 6 90 10 164 4 73 8 140 9 148 1 8 38 34 82 57
381 202 724 463 1059 806 41 41 83 86 95 100 11 14 33 39 49 55 122 132 354
446 468 630 50 82 95 158 118 199 15 28 40 70 54 95 52 90 190 379 233 486 11
28 26 66 35 85 25 58 31 72 53 135 11 33 25 69 30 80 36 81 179 566 205 698 3
10 7 27 10 37 11 35 89 425 100 500 9 68 13 92 19 125 7 42 24 179 31 248 4
32 8 66 10 76 2 9 6 57 10 107 4 49 8 100 10 114 4 27 15 173 20 285 2 39 6
196 9 350 l6 280 -118 82 c-64 45 -126 90 -137 100 -11 10 -41 36 -67 57 -27
21 -48 42 -48 47 0 5 21 41 47 81 25 40 76 130 113 200 l66 126 39 -35 c22
-19 54 -48 71 -63 54 -49 215 -165 312 -225 109 -67 139 -97 164 -160 17 -43
18 -75 13 -418 -3 -205 -7 -397 -9 -427 -3 -30 -7 -104 -11 -165 -3 -60 -8
-128 -10 -150 -3 -22 -7 -67 -10 -100 -9 -103 -16 -172 -35 -325 -14 -105 -18
-133 -35 -240 -21 -127 -25 -151 -31 -195 -5 -34 -86 -410 -98 -455 -2 -8 -16
-62 -31 -120 -141 -561 -393 -1171 -683 -1655 -94 -158 -241 -376 -329 -490
-177 -227 -271 -334 -477 -541 -364 -363 -722 -628 -1146 -846 -172 -89 -221
-108 -280 -112 -53 -3 -71 4 -255 96 -595 297 -1167 776 -1612 1350 -148 191
-195 259 -344 500 -224 362 -423 790 -569 1228 -51 153 -136 431 -145 479 -2
9 -10 43 -19 76 -25 98 -89 390 -101 465 -4 25 -9 54 -11 65 -14 69 -43 256
-49 315 -3 30 -8 62 -10 70 -2 8 -7 44 -10 80 -4 36 -8 67 -10 70 -2 3 -6 48
-10 100 -4 52 -8 109 -10 125 -35 283 -53 1147 -25 1215 25 63 61 100 154 157
159 98 251 166 381 283 27 25 52 48 53 53 9 19 24 -1 71 -95z"/>
</g>
</svg>
